<?xml version="1.0" encoding="UTF-8" standalone="no"?>
<svg
   xmlns:dc="http://purl.org/dc/elements/1.1/"
   xmlns:cc="http://creativecommons.org/ns#"
   xmlns:rdf="http://www.w3.org/1999/02/22-rdf-syntax-ns#"
   xmlns:svg="http://www.w3.org/2000/svg"
   xmlns="http://www.w3.org/2000/svg"
   xmlns:sodipodi="http://sodipodi.sourceforge.net/DTD/sodipodi-0.dtd"
   xmlns:inkscape="http://www.inkscape.org/namespaces/inkscape"
   width="24.079304mm"
   height="24.874008mm"
   viewBox="0 0 24.079303 24.874009"
   version="1.1"
   id="svg8"
   inkscape:version="1.0.2 (e86c870879, 2021-01-15, custom)"
   sodipodi:docname="sh-4.svg">
  <defs
     id="defs2">
    <clipPath
       clipPathUnits="userSpaceOnUse"
       id="clipPath1035">
      <path
         d="m 595.2,22.56 h 8.4 v 14.16 h -8.4 z"
         id="path1033" />
    </clipPath>
    <clipPath
       clipPathUnits="userSpaceOnUse"
       id="clipPath1051">
      <path
         d="m 457.08,22.56 h 8.4 V 36 h -8.4 z"
         id="path1049" />
    </clipPath>
    <clipPath
       clipPathUnits="userSpaceOnUse"
       id="clipPath1153">
      <path
         d="m 319.32,22.56 h 8.4 v 13.8 h -8.4 z"
         id="path1151" />
    </clipPath>
    <clipPath
       clipPathUnits="userSpaceOnUse"
       id="clipPath1179">
      <path
         d="m 182.76,22.56 h 8.52 v 14.16 h -8.52 z"
         id="path1177" />
    </clipPath>
  </defs>
  <sodipodi:namedview
     id="base"
     pagecolor="#ffffff"
     bordercolor="#666666"
     borderopacity="1.0"
     inkscape:pageopacity="0.0"
     inkscape:pageshadow="2"
     inkscape:zoom="3.959798"
     inkscape:cx="58.798735"
     inkscape:cy="13.622707"
     inkscape:document-units="mm"
     inkscape:current-layer="layer1"
     inkscape:document-rotation="0"
     showgrid="false"
     inkscape:window-width="1920"
     inkscape:window-height="1017"
     inkscape:window-x="-8"
     inkscape:window-y="-8"
     inkscape:window-maximized="1"
     fit-margin-left="2"
     fit-margin-top="2"
     fit-margin-right="2"
     fit-margin-bottom="2"
     lock-margins="true" />
  <metadata
     id="metadata5">
    <rdf:RDF>
      <cc:Work
         rdf:about="">
        <dc:format>image/svg+xml</dc:format>
        <dc:type
           rdf:resource="http://purl.org/dc/dcmitype/StillImage" />
        <dc:title />
      </cc:Work>
    </rdf:RDF>
  </metadata>
  <g
     inkscape:label="Layer 1"
     inkscape:groupmode="layer"
     id="layer1"
     transform="translate(119.58576,-25.96235)">
    <text
       style="font-variant:normal;font-weight:normal;font-size:3.51367px;font-family:'Century Gothic';-inkscape-font-specification:CenturyGothic;writing-mode:lr-tb;fill:#000000;fill-opacity:1;fill-rule:nonzero;stroke:none;stroke-width:0.352778"
       id="text925"
       x="-99.693451"
       y="56.912643"><tspan
         x="-100.92111"
         y="44.381977"
         id="tspan923"
         style="stroke-width:0.352778">1</tspan></text>
    <path
       d="m -117.43569,45.215023 v 0.127 l 0.0423,0.08467 0.0423,0.127 0.0423,0.04233 0.0847,0.08467 0.127,0.04233 0.0847,0.04233 h 11.98034 v -0.846667"
       style="fill:none;stroke:#000000;stroke-width:0.3;stroke-linecap:round;stroke-linejoin:round;stroke-miterlimit:10;stroke-dasharray:none;stroke-opacity:1"
       id="path3269" />
    <path
       d="M -105.45536,45.765356 V 44.918689"
       style="fill:none;stroke:#000000;stroke-width:0.3;stroke-linecap:round;stroke-linejoin:round;stroke-miterlimit:10;stroke-dasharray:none;stroke-opacity:1"
       id="path3271" />
    <path
       d="m -106.76769,44.918689 v -1.100666 l 0.33867,-0.296334 h 0.84666 v -1.27 h -0.84666 l -0.33867,-0.296333 v -1.143 l 0.33867,-0.296333 h 0.84666 v -1.27 h -0.84666 l -0.33867,-0.296334 v -1.100666 l 0.33867,-0.296334 h 0.84666 v -1.312333 h -0.84666 l -0.33867,-0.296333 v -1.100667 1.100667"
       style="fill:none;stroke:#000000;stroke-width:0.3;stroke-linecap:round;stroke-linejoin:round;stroke-miterlimit:10;stroke-dasharray:none;stroke-opacity:1"
       id="path3273" />
    <path
       d="m -106.76769,34.843356 0.33867,-0.296333 h 0.84666 v -1.27 h -0.84666 l -0.33867,-0.296333 v -1.143"
       style="fill:none;stroke:#000000;stroke-width:0.3;stroke-linecap:round;stroke-linejoin:round;stroke-miterlimit:10;stroke-dasharray:none;stroke-opacity:1"
       id="path3275" />
    <path
       d="m -106.76769,38.949689 h -1.10067 m 1.10067,-0.254 h -6.858 m 6.858,-0.846666 h -1.10067 m 1.10067,0.211666 h -6.858 m 6.858,-5.079999 h -1.10067 m 1.10067,1.862666 h -1.10067 m 1.10067,0.254 h -6.858"
       style="fill:none;stroke:#000000;stroke-width:0.3;stroke-linecap:round;stroke-linejoin:round;stroke-miterlimit:10;stroke-dasharray:none;stroke-opacity:1"
       id="path3277" />
    <path
       d="m -113.62569,35.817023 h 5.75733 v 2.159 h -5.75733"
       style="fill:none;stroke:#000000;stroke-width:0.3;stroke-linecap:round;stroke-linejoin:round;stroke-miterlimit:10;stroke-dasharray:none;stroke-opacity:1"
       id="path3279" />
    <path
       d="m -113.62569,32.811356 h 5.75733 v 2.201333 h -5.75733"
       style="fill:none;stroke:#000000;stroke-width:0.3;stroke-linecap:round;stroke-linejoin:round;stroke-miterlimit:10;stroke-dasharray:none;stroke-opacity:1"
       id="path3281" />
    <path
       d="m -106.76769,35.944023 h -1.10067 m 1.10067,-0.254 h -6.858 m 6.858,6.265333 h -1.10067 m 1.10067,-0.254 h -6.858 m 6.858,-0.889 h -1.10067 m 1.10067,0.254 h -6.858 m 6.858,2.751667 h -1.10067 m 1.10067,0.254 h -6.858 m 6.858,-11.345333 h -6.858"
       style="fill:none;stroke:#000000;stroke-width:0.3;stroke-linecap:round;stroke-linejoin:round;stroke-miterlimit:10;stroke-dasharray:none;stroke-opacity:1"
       id="path3283" />
    <path
       d="m -113.62569,43.987356 h 5.75733 v -2.201333 h -5.75733"
       style="fill:none;stroke:#000000;stroke-width:0.3;stroke-linecap:round;stroke-linejoin:round;stroke-miterlimit:10;stroke-dasharray:none;stroke-opacity:1"
       id="path3285" />
    <path
       d="m -113.62569,40.981689 h 5.75733 v -2.201333 h -5.75733"
       style="fill:none;stroke:#000000;stroke-width:0.3;stroke-linecap:round;stroke-linejoin:round;stroke-miterlimit:10;stroke-dasharray:none;stroke-opacity:1"
       id="path3287" />
    <path
       d="m -111.72069,45.765356 v -1.312333 h -1.905 v -0.677334 l 0.80433,0.127 h 4.86834 v -2.032 h -4.86834 l -0.80433,0.127 v -1.227666 l 0.80433,0.127 h 4.86834 v -2.032 h -4.86834 l -0.80433,0.127 v -1.227667 l 0.80433,0.127 h 4.86834 v -1.989667 h -4.86834 l -0.80433,0.127 v -1.227666 1.227666"
       style="fill:none;stroke:#000000;stroke-width:0.3;stroke-linecap:round;stroke-linejoin:round;stroke-miterlimit:10;stroke-dasharray:none;stroke-opacity:1"
       id="path3289" />
    <path
       d="m -113.62569,34.801023 0.80433,0.127 h 4.86834 v -2.032 h -4.86834 l -0.80433,0.127 v -0.719667 h 1.905 v -1.27"
       style="fill:none;stroke:#000000;stroke-width:0.3;stroke-linecap:round;stroke-linejoin:round;stroke-miterlimit:10;stroke-dasharray:none;stroke-opacity:1"
       id="path3291" />
    <path
       d="m -111.72069,34.928023 v -2.032 m 0,4.995333 v -1.989667 m 0,4.995334 v -2.032 m 0,5.037666 v -2.032 m -1.10067,-6.942666 v -2.032 m 0,4.995333 v -1.989667 m 0,4.995334 v -2.032 m 0,5.037666 v -2.032"
       style="fill:none;stroke:#000000;stroke-width:0.3;stroke-linecap:round;stroke-linejoin:round;stroke-miterlimit:10;stroke-dasharray:none;stroke-opacity:1"
       id="path3293" />
    <path
       d="m -113.75269,30.991023 h -0.16933 l -0.127,-0.04233 -0.127,-0.08467 -0.127,-0.08467 -0.0847,-0.08467 -0.0423,-0.127 -0.0847,-0.169333 v -1.86266 l -0.0423,-0.08467 -0.0423,-0.08467 -0.0847,-0.08467 -0.0847,-0.08467 -0.0847,-0.04233 -0.0847,-0.04233 h -2.07434 l -0.0847,0.04233 -0.127,0.04233 -0.0847,0.08467 -0.0423,0.08467 -0.0423,0.08467 -0.0423,0.08467 v 19.684999 l 0.0423,0.127 0.0423,0.08467 0.0423,0.08467 0.0847,0.04233 0.127,0.08467 h 0.0847 l 0.127,0.04233 h 1.82034 l 0.127,-0.04233 h 0.0847 l 0.0847,-0.08467 0.0847,-0.04233 0.0847,-0.08467 0.0423,-0.08467 0.0423,-0.127 v -1.862666 l 0.0847,-0.127 0.0423,-0.127 0.0847,-0.127 0.127,-0.08467 0.127,-0.04233 0.127,-0.04233 0.16933,-0.04233"
       style="fill:none;stroke:#000000;stroke-width:0.3;stroke-linecap:round;stroke-linejoin:round;stroke-miterlimit:10;stroke-dasharray:none;stroke-opacity:1"
       id="path3295" />
    <path
       d="m -117.43569,31.541356 v -0.08467 l 0.0423,-0.127 0.0423,-0.08467 0.0423,-0.08467 0.0847,-0.04233 0.127,-0.08467 h 0.0847 l 0.127,-0.04233 h 11.85334 v 0.84667"
       style="fill:none;stroke:#000000;stroke-width:0.3;stroke-linecap:round;stroke-linejoin:round;stroke-miterlimit:10;stroke-dasharray:none;stroke-opacity:1"
       id="path3297" />
    <path
       d="M -105.45536,30.991023 V 31.83769"
       style="fill:none;stroke:#000000;stroke-width:0.3;stroke-linecap:round;stroke-linejoin:round;stroke-miterlimit:10;stroke-dasharray:none;stroke-opacity:1"
       id="path3299" />
    <path
       d="m -111.72069,31.83769 h 8.763 l 0.29633,0.338666 v 12.446 l -0.29633,0.296333 h -8.763"
       style="fill:none;stroke:#000000;stroke-width:0.3;stroke-linecap:round;stroke-linejoin:round;stroke-miterlimit:10;stroke-dasharray:none;stroke-opacity:1"
       id="path3301" />
    <path
       d="m -104.18536,43.775689 v -1.778 h -1.397 v 1.778 z"
       style="fill:none;stroke:#000000;stroke-width:0.3;stroke-linecap:round;stroke-linejoin:round;stroke-miterlimit:10;stroke-dasharray:none;stroke-opacity:1"
       id="path3303" />
    <path
       d="m -104.18536,34.801023 v -1.778 h -1.397 v 1.778 z"
       style="fill:none;stroke:#000000;stroke-width:0.3;stroke-linecap:round;stroke-linejoin:round;stroke-miterlimit:10;stroke-dasharray:none;stroke-opacity:1"
       id="path3305" />
    <path
       d="M -103.55036,44.918689 V 31.83769"
       style="fill:none;stroke:#000000;stroke-width:0.3;stroke-linecap:round;stroke-linejoin:round;stroke-miterlimit:10;stroke-dasharray:none;stroke-opacity:1"
       id="path3307" />
    <path
       d="m -117.43569,41.870689 2.75167,1.100667 -2.75167,0.889"
       style="fill:none;stroke:#000000;stroke-width:0.3;stroke-linecap:round;stroke-linejoin:round;stroke-miterlimit:10;stroke-dasharray:none;stroke-opacity:1"
       id="path3443" />
    <text
       style="font-variant:normal;font-weight:normal;font-size:3.51367px;font-family:'Century Gothic';-inkscape-font-specification:CenturyGothic;writing-mode:lr-tb;fill:#000000;fill-opacity:1;fill-rule:nonzero;stroke:none;stroke-width:0.352778"
       id="text925-1"
       x="-99.736885"
       y="47.706154"><tspan
         x="-100.96456"
         y="35.175488"
         id="tspan923-5"
         style="stroke-width:0.352778">4</tspan></text>
  </g>
</svg>
